<svg xmlns="http://www.w3.org/2000/svg" width="57.942" height="19.982" fill="none" overflow="visible"><path d="M 21.9 0 L 10.44 19.982 L 0 19.982 L 8.948 4.379 C 10.335 1.961 13.797 0 16.68 0 Z M 47.502 4.996 C 47.502 2.237 49.839 0 52.722 0 C 55.605 0 57.942 2.237 57.942 4.996 C 57.942 7.755 55.605 9.991 52.722 9.991 C 49.839 9.991 47.502 7.755 47.502 4.996 Z M 23.857 0 L 34.297 0 L 22.838 19.982 L 12.398 19.982 Z M 36.188 0 L 46.628 0 L 37.68 15.603 C 36.292 18.022 32.831 19.982 29.948 19.982 L 24.728 19.982 Z" fill="rgb(245, 245, 245)"></path></svg>