<svg xmlns="http://www.w3.org/2000/svg" width="35" height="35" fill="none" overflow="visible"><path d="M 0 6 C 0 2.686 2.686 0 6 0 L 29 0 C 32.314 0 35 2.686 35 6 L 35 29 C 35 32.314 32.314 35 29 35 L 6 35 C 2.686 35 0 32.314 0 29 Z M 10.924 12 C 9.382 12 7.53 13.079 6.787 14.411 L 2 23 L 7.586 23 L 13.717 12 Z M 30.207 17.5 C 31.75 17.5 33 16.269 33 14.75 C 33 13.231 31.75 12 30.207 12 C 28.665 12 27.414 13.231 27.414 14.75 C 27.414 16.269 28.665 17.5 30.207 17.5 Z M 8.633 23 L 14.219 23 L 20.35 12 L 14.764 12 Z M 15.23 23 L 18.023 23 C 19.565 23 21.417 21.921 22.159 20.589 L 26.947 12 L 21.361 12 Z" fill="rgb(255, 255, 255)"></path></svg>